<?xml version="1.0" encoding="utf-8"?>
<!-- Generator: Adobe Illustrator 27.6.1, SVG Export Plug-In . SVG Version: 6.00 Build 0)  -->
<svg version="1.1" id="Layer_1" xmlns="http://www.w3.org/2000/svg" xmlns:xlink="http://www.w3.org/1999/xlink" x="0px" y="0px"
	 viewBox="0 0 805 155" style="enable-background:new 0 0 805 155;" xml:space="preserve">
<style type="text/css">
	.st0{fill:#231916;}
	.st1{fill:#FFFFFF;}
	.st2{fill:#231F20;}
</style>
<g id="XMLID_2_">
	<g id="XMLID_3_">
		<path id="XMLID_28_" class="st0" d="M727.2,87.1l0.3-1h-4.9l-0.3,1h4.3C727,87.1,727.2,87.1,727.2,87.1"/>
		<path id="XMLID_27_" class="st0" d="M728.2,83.9l0.4-1.2h-5l-0.7,2.4c0,0,1-0.9,2.6-1.2C725.8,83.9,728.2,83.9,728.2,83.9"/>
		<path id="XMLID_26_" class="st0" d="M737.8,67.2c0.9-0.5,1.6-1.4,1.8-2.5c0.3-1.2-0.1-2.1-1-2.5c-0.1,0-2.4-0.2-2.4-0.2l-0.4-0.1
			l0,0.2l0,0.3c0,0-1.1,5-1.1,5l0,0.2h0.6C736.2,67.6,737.1,67.6,737.8,67.2"/>
		<path id="XMLID_25_" class="st0" d="M711.8,74.2c0.4,0,0.7-0.3,1-0.7c0.4-0.6,0.7-1.9,0.8-2.3c0.4-1.6,0.3-2.6-0.5-2.6
			c-1.1,0-1.5,1.4-1.9,3c-0.1,0.6-0.2,1.1-0.2,1.6C711,74.2,711.7,74.2,711.8,74.2"/>
		<polygon id="XMLID_24_" class="st0" points="735.1,93.8 737.6,93.8 738.4,91.3 735.8,91.3 		"/>
		<path id="XMLID_23_" class="st0" d="M745.7,74.3c0.4,0,1-0.3,1.3-0.7c0.2-0.2,0.3-0.5,0.4-0.8c0.1-0.5,0.2-0.9,0.3-1.4
			c0.1-0.3,0.1-0.6,0.2-0.9c0.1-1.1-0.3-1.8-1-1.8c-1.1,0-1.5,1.4-1.9,2.9c-0.1,0.6-0.2,1.1-0.2,1.6C745,74.3,745.6,74.3,745.7,74.3
			"/>
		<path id="XMLID_22_" class="st0" d="M738.4,82.7l-0.8,2.8c0,0,1-0.4,1.5-0.6c0.5-0.1,1.3-0.2,1.3-0.2l0.6-2.1H738.4z"/>
		<path id="XMLID_5_" class="st0" d="M766.6,41.9h-26.5c-3.8,0-7.5,3.1-8.4,7l-3.4,14.9c-0.5-0.3-1.2-0.3-1.7-0.3l3.4-14.9
			c0.7-2.9,2.7-5.4,5.3-6.8h-24.9c-3.8,0-7.5,3.1-8.4,7l-3.3,14.4c-0.7,0.1-1.5,0.1-1.8,0.2l3.4-14.9c0.7-2.9,2.7-5.4,5.3-6.8H685
			c-3.8,0-7.5,3.1-8.4,7l-12.6,55.2c-0.9,3.9,1.5,7,5.2,7h21c-0.5-0.4-1-0.8-1.4-1.3c-1.2-1.6-1.6-3.7-1.1-6l5.6-24.5h1.7l-5.6,24.7
			c-0.9,3.9,1.4,7,5.2,7h25.3c-0.5-0.4-1-0.8-1.4-1.3c-1.2-1.6-1.6-3.7-1.1-6l1-4.4h1.7l-1,4.6c-0.9,3.9,1.4,7,5.2,7h26.5
			c3.8,0,7.5-3.1,8.4-7l12.6-55.2C772.7,45.1,770.4,41.9,766.6,41.9 M747.3,66.6c0.6,0.2,0.9,0.6,1.2,1c0-0.1,0-0.3,0.1-0.4l0.1-0.1
			c1.6-0.2,2.1-0.3,3.8-0.6l0.1,0.1c-0.3,1.3-0.6,2.6-0.9,3.9c-0.6,2.8-0.9,4.2-1.1,5.6l-0.2,0.1c-1.6,0-2.1,0-3.6,0.1l-0.1-0.1
			c0-0.2,0.1-0.4,0.1-0.6c-0.6,0.5-1.1,0.8-1.8,0.8c-0.6,0-1.2-0.1-1.9-0.3c-2.1-0.8-1.8-3.2-1.5-4.5c0.3-1.3,0.8-2.6,1.8-3.6
			C744.9,66.7,746.6,66.3,747.3,66.6 M731.3,65.1c0,0,1-5,1-5s0.1-0.4,0.1-0.6c0.5,0.1,1.7,0.1,4.6,0l1.1,0c2.3,0,4.3,0,5.3,1.5
			c0.4,0.5,0.5,1.2,0.5,1.9c0,0.5-0.1,1.1-0.2,1.5c-0.4,1.8-1.3,3.3-2.6,4.3c-2,1.5-4.4,1.5-6.7,1.5h-0.2c-0.2,0.1-0.3,0.3-0.3,0.3
			c0,0.1-0.5,2.3-0.5,2.3s-0.6,3-0.7,3.5c-0.4,0-1.5,0-4,0C728.8,75.7,731.3,65.1,731.3,65.1 M718.2,72.7c0.7-3,0.8-4.2,1-5.7
			l0.1-0.1c1.6-0.2,2-0.3,3.7-0.6l0.1,0.2l-0.2,1c0.3-0.2,0.6-0.4,0.9-0.5c0.8-0.4,1.7-0.5,2.2-0.5c0.7,0,1.6,0.2,1.9,1.1
			c0.3,0.8,0.1,1.8-0.3,3.7l-0.2,1c-0.4,2.1-0.5,2.5-0.7,4l-0.2,0.1c-1.4,0-1.8,0-3.4,0.1l-0.1-0.1c0.1-0.6,0.3-1.2,0.4-1.8l0.2-0.8
			c0.3-1.3,0.6-2.8,0.6-3.3c0-0.3,0.1-1-0.7-1c-0.3,0-0.7,0.2-1,0.3c-0.2,0.7-0.6,2.7-0.8,3.6c-0.4,1.9-0.4,2.1-0.6,3l-0.1,0.1
			c-1.4,0-1.9,0-3.5,0.1l-0.1-0.1C717.7,75,718,73.8,718.2,72.7 M719.6,81.6l-0.6,2.2h-4.8l-0.5,0.5c-0.2,0.2-0.3,0.1-0.6,0.3
			c-0.3,0.1-0.8,0.4-1.6,0.4h-1.5l0.6-2.1h0.5c0.4,0,0.7,0,0.8-0.1c0.2-0.1,0.3-0.3,0.5-0.7l0.9-1.6h3.5l-0.6,1.2H719.6z
			 M689.5,70.1c-0.5,1.7-1,3.7-3.1,5c-1.2,0.7-3,1.2-4.9,1.2c-1.5,0-4.1-0.2-5-1.9c-0.3-0.5-0.4-1.1-0.4-1.9l0.3-2.5l0.2-0.8l2-9.1
			c0,0,0.1-0.5,0.1-0.6c0,0.1,0.7,0.1,4.6,0.1c0,0,0,0.1,0,0.1c-0.4,1.1-2.3,9.1-2.3,9.1c0,0-0.4,2.4-0.4,2.4l0,0.4
			c0.1,1.2,0.8,1.8,2.1,1.8c0.8,0,1.4-0.2,2-0.7c1-0.8,1.3-2.1,1.7-3.9c0,0,1.9-8.8,2-9.3c0.3,0.1,1.1,0.1,3.9,0.1c0,0,0,0.1,0,0.1
			c-0.3,1.1-2.4,9.5-2.4,9.5L689.5,70.1z M700.6,71.1l-0.2,1c-0.4,2.1-0.5,2.5-0.8,4l-0.2,0.1c-1.4,0-1.8,0-3.4,0.1l-0.1-0.1
			c0.1-0.6,0.3-1.2,0.4-1.8l0.2-0.8c0.3-1.3,0.6-2.8,0.6-3.3c0-0.3,0.1-1-0.7-1c-0.3,0-0.7,0.2-1,0.3c-0.2,0.7-0.6,2.7-0.8,3.6
			c-0.4,1.9-0.4,2.1-0.6,3l-0.1,0.1c-1.4,0-1.9,0-3.5,0.1l-0.1-0.1c0.3-1.1,0.5-2.2,0.8-3.4c0.7-3,0.8-4.2,1-5.7l0.1-0.1
			c1.6-0.2,1.9-0.3,3.6-0.6l0.1,0.2l-0.3,1c0.3-0.2,0.6-0.4,0.9-0.5c0.8-0.4,1.7-0.5,2.2-0.5c0.7,0,1.6,0.2,1.9,1.1
			C701.2,68.2,701,69.2,700.6,71.1 M706.3,70.5c-0.2,0.7-0.3,1.3-0.5,2c-0.3,1.4-0.4,1.9-0.5,2.3c-0.1,0.4-0.1,0.6-0.2,1.3l-0.1,0.1
			l-0.1,0.1c-0.8,0-1.3,0-1.9,0c-0.5,0-1,0-1.8,0.1l0-0.1l-0.1-0.1c0.2-0.8,0.3-1.1,0.4-1.4c0.1-0.3,0.2-0.6,0.4-1.4
			c0.2-1.1,0.4-1.8,0.5-2.5c0.1-0.6,0.2-1.2,0.3-1.8l0.1,0l0.1-0.1c0.8-0.1,1.3-0.2,1.9-0.3c0.5-0.1,1.1-0.2,1.9-0.3l0,0.1l0,0.1
			C706.6,69.2,706.4,69.8,706.3,70.5 M706.4,67.6c-0.9,0.6-2.2,0.8-3,0.3c-0.8-0.5-0.7-1.4,0.3-2c0.9-0.6,2.2-0.8,3-0.3
			C707.5,66.1,707.3,67,706.4,67.6 M707.6,71.5c0.3-1.3,0.8-2.6,1.8-3.6c1.5-1.4,3.3-1.5,4.1-1.5c1.3,0,2.5,0.3,3.3,1.2
			c0.5,0.6,0.8,1.6,0.4,3.7c-0.1,0.6-0.6,2.2-1.5,3.3c-1.2,1.3-2.8,1.7-4.3,1.7c-0.6,0-1.5-0.1-2.2-0.4
			C707,75.1,707.4,72.8,707.6,71.5 M715,96.8h-4c-0.3,0-0.6,0-0.9-0.1c-0.3-0.1-0.5-0.2-0.6-0.5c-0.1-0.2-0.4-0.4-0.2-0.9l1.1-3.9
			h-2l0.6-2.2h2l0.5-1.8h-2l0.6-2.1h8.6l-0.6,2.1h-3.4l-0.5,1.8h3.5l-0.6,2.2h-3.5l-0.9,2.9c-0.1,0.3,0.8,0.4,1.2,0.4l1.8-0.2
			L715,96.8z M722.1,96.8h-2.3c-0.7,0-1.3,0-1.6,0c-0.4,0-0.7,0-1-0.2c-0.2-0.2-0.5-0.4-0.5-0.7c0-0.2,0.1-0.6,0.3-1.2l4.2-14.3h3
			l-0.4,1.6c0,0,0.9-0.8,1.6-1c0.7-0.3,2.2-0.5,2.2-0.5l4.9,0l-1.7,5.6c-0.3,1-0.6,1.6-0.8,1.9c-0.2,0.3-0.4,0.5-0.8,0.8
			c-0.4,0.2-0.8,0.4-1.1,0.4c-0.3,0-0.8,0-1.5,0h-4.7l-1.3,4.5c-0.1,0.4-0.2,0.7-0.1,0.8c0.1,0.1,0.2,0.2,0.5,0.2l2.1-0.2
			L722.1,96.8z M729.6,90.9c-0.1,0.4-0.2,0.7-0.5,1c-0.3,0.3-0.7,0.6-1.6,0.6l-1.7,0.1l0,1.5c0,0.4,0.1,0.4,0.2,0.5
			c0.1,0.1,0.2,0.1,0.2,0.1l0.5,0l1.6-0.1l-0.7,2.2h-1.8c-1.3,0-2.2,0-2.5-0.3c-0.3-0.2-0.4-0.5-0.3-0.9l0.1-6h2.9l0,1.2h0.7
			c0.2,0,0.4,0,0.5-0.1c0.1-0.1,0.2-0.2,0.2-0.3l0.3-0.9h2.3L729.6,90.9z M739.8,96.8h-3.1l0.2-0.7h-6.4l0.6-2.1h0.6l3.3-11.3
			l0.7-2.3h3.2l-0.3,1.2c0,0,0.8-0.6,1.7-0.8c0.7-0.2,4-0.3,5.1-0.3v0h3.4l0,1.3c0,0.2,0.2,0.3,0.6,0.3h0.7l-0.6,2.1h-1.8
			c-1.6,0.1-2.2-0.6-2.2-1.4l0-1.3l-0.4,1.1H744l-3.3,11.1h0.9l-0.7,2.3H740L739.8,96.8z M754,86.9h-3.4l-0.5,1.7h3.4l-0.6,1.9h-3.7
			l-0.7,0.8h1.5l0.4,2.4c0,0.2,0,0.4,0.1,0.5c0.1,0.1,0.5,0.1,0.8,0.1h0.5l-0.7,2.3h-1.2c-0.2,0-0.4,0-0.8,0c-0.3,0-0.6-0.2-0.8-0.4
			c-0.2-0.1-0.5-0.4-0.6-0.8l-0.4-2.4l-1.7,2.4c-0.5,0.7-1.3,1.3-2.5,1.3h-2.4l0.6-2.1h0.9c0.3,0,0.5-0.1,0.7-0.2
			c0.2-0.1,0.3-0.2,0.5-0.4l2.5-3.5h-3.2l0.6-1.9h3.7l0.5-1.7h-3.7l0.6-2.2h10.2L754,86.9z M756.1,80.3l-0.1,0.2h0l-1.3,2.3
			c-0.4,0.8-1.2,1.4-2.4,1.4l-2.1,0l0.6-2.1h0.4c0.2,0,0.4,0,0.5-0.1c0.1,0,0.2-0.1,0.3-0.2l0.7-1.2l0,0c1-1.6,1.3-2.3,2.4-4.2
			c-0.2-2.1-0.3-2.7-0.5-4.1c-0.1-0.8-0.2-1.6-0.3-2.5c-0.2-1.7-0.2-1.4-0.4-2.5l0,0c0-0.1,0-0.1,0-0.2l0.1-0.1
			c1.6-0.2,1.7-0.3,3.4-0.6l0.1,0.1l0.2,4.6c0,0.1,0,0.2,0,0.3c0.9-2.1,0.9-1.5,2.1-4.3l0,0c0,0,0-0.1,0-0.1l0.1-0.1
			c1.5-0.2,1.8-0.3,3.5-0.6l0.1,0.1C763.7,66.5,757,78.3,756.1,80.3"/>
		<path id="XMLID_4_" class="st0" d="M736.2,89.9c0,0,1-0.5,1.5-0.7c0.5-0.1,1.3-0.2,1.3-0.2l0.6-2.1h-2.5L736.2,89.9z"/>
	</g>
</g>
<g>
	<path class="st1" d="M519.6,45.9v61.7c0,1.3,1.1,2.4,2.4,2.4h65.5c18.3,0,33.2-14.9,33.2-33.2v0c0-18.3-14.9-33.2-33.2-33.2h-65.5
		C520.6,43.5,519.6,44.6,519.6,45.9z"/>
	<path class="st2" d="M622.3,42.3H521.9c-2,0-3.5,1.6-3.5,3.5v61.7c0,2,1.6,3.5,3.5,3.5h100.4c2,0,3.5-1.6,3.5-3.5V45.9
		C625.9,43.9,624.3,42.3,622.3,42.3z M620.6,76.7c0,18.3-14.9,33.2-33.2,33.2h-65.5c-1.3,0-2.4-1.1-2.4-2.4V45.9
		c0-1.3,1.1-2.4,2.4-2.4h65.5C605.7,43.5,620.6,58.4,620.6,76.7L620.6,76.7z"/>
	<g>
		<path class="st2" d="M527.5,69.2h-4.2v14.6h4.2c2.2,0,3.8-0.5,5.2-1.7c1.7-1.4,2.7-3.5,2.7-5.6C535.4,72.2,532.2,69.2,527.5,69.2z
			 M530.9,80.2c-0.9,0.8-2.1,1.2-3.9,1.2h-0.8v-9.7h0.8c1.8,0,3,0.3,3.9,1.2c1,0.9,1.6,2.2,1.6,3.6
			C532.4,77.9,531.8,79.3,530.9,80.2z"/>
		<rect x="536.7" y="69.2" class="st2" width="2.8" height="14.6"/>
		<path class="st2" d="M546.5,74.8c-1.7-0.6-2.2-1-2.2-1.8c0-0.9,0.9-1.6,2.1-1.6c0.9,0,1.6,0.4,2.3,1.2l1.5-2
			c-1.2-1.1-2.7-1.6-4.3-1.6c-2.6,0-4.6,1.8-4.6,4.2c0,2,0.9,3,3.6,4c1.1,0.4,1.7,0.7,2,0.8c0.6,0.4,0.9,0.9,0.9,1.5
			c0,1.2-0.9,2.1-2.2,2.1c-1.4,0-2.5-0.7-3.1-1.9l-1.8,1.8c1.3,1.9,2.9,2.8,5.1,2.8c3,0,5-2,5-4.8C550.7,77.1,549.7,76,546.5,74.8z"
			/>
		<path class="st2" d="M551.6,76.5c0,4.3,3.4,7.6,7.7,7.6c1.2,0,2.3-0.2,3.6-0.8V80c-1.1,1.1-2.1,1.6-3.4,1.6c-2.9,0-4.9-2.1-4.9-5
			c0-2.8,2.1-5,4.8-5c1.4,0,2.4,0.5,3.6,1.6v-3.4c-1.3-0.6-2.3-0.9-3.5-0.9C555.1,68.9,551.6,72.3,551.6,76.5z"/>
		<polygon class="st2" points="585.5,79 581.6,69.2 578.5,69.2 584.7,84.2 586.2,84.2 592.5,69.2 589.4,69.2 		"/>
		<polygon class="st2" points="593.8,83.8 601.9,83.8 601.9,81.4 596.7,81.4 596.7,77.4 601.7,77.4 601.7,74.9 596.7,74.9 
			596.7,71.7 601.9,71.7 601.9,69.2 593.8,69.2 		"/>
		<path class="st2" d="M613.2,73.5c0-2.7-1.9-4.3-5.2-4.3h-4.2v14.6h2.8V78h0.4l3.9,5.9h3.5l-4.6-6.2
			C612,77.2,613.2,75.8,613.2,73.5z M607.4,76h-0.8v-4.4h0.9c1.8,0,2.7,0.7,2.7,2.2C610.2,75.2,609.3,76,607.4,76z"/>
		<path class="st2" d="M615.4,70c0-0.3-0.2-0.4-0.5-0.4h-0.4v1.3h0.3v-0.5l0.4,0.5h0.4l-0.4-0.5C615.3,70.3,615.4,70.2,615.4,70z
			 M614.9,70.2L614.9,70.2l-0.1-0.3h0.1c0.2,0,0.2,0.1,0.2,0.2C615.1,70.1,615,70.2,614.9,70.2z"/>
		<path class="st2" d="M615,69.1c-0.6,0-1.1,0.5-1.1,1.1c0,0.6,0.5,1.1,1.1,1.1c0.6,0,1.1-0.5,1.1-1.1
			C616.1,69.6,615.6,69.1,615,69.1z M615,71.2c-0.5,0-0.9-0.4-0.9-0.9c0-0.5,0.4-0.9,0.9-0.9c0.5,0,0.9,0.4,0.9,0.9
			C615.9,70.7,615.5,71.2,615,71.2z"/>
		<g>
			<path class="st2" d="M579.3,76.5c0,4.3-3.5,7.7-7.7,7.7s-7.7-3.5-7.7-7.7c0-4.3,3.5-7.7,7.7-7.7S579.3,72.2,579.3,76.5z"/>
		</g>
	</g>
</g>
<g>
	<g>
		<g>
			<path d="M141.4,104.2l-4.9-5.5l-5.1,5.5h-10.1l0,0H99.5V78.7H89.2l12.6-28.6h12.2l4.3,9.9v-9.9h15.2l2.6,7.5l2.6-7.5h11.6v-4.3
				c0-2.6-2.2-4.7-4.7-4.7H43.8c-2.6,0-4.7,2.2-4.7,4.7v61.6c0,2.6,2.2,4.7,4.7,4.7h102.1c2.6,0,4.7-2.2,4.7-4.7v-3.2L141.4,104.2z"
				/>
			<g>
				<polygon points="142.8,101.2 150.7,101.2 140.2,90 150.7,79.1 143,79.1 136.2,86.2 129.9,79.1 121.8,79.1 132.3,90.2 
					121.8,101.2 129.5,101.2 136.2,94.1 				"/>
				<polygon points="109,96.1 109,92.7 121.4,92.7 121.4,87.6 109,87.6 109,84.3 121.8,84.3 121.8,79.1 102.9,79.1 102.9,101.2 
					121.8,101.2 121.8,96.1 				"/>
				<polygon points="144.7,75.8 150.7,75.8 150.7,53.5 141.4,53.7 136.4,67.5 131.3,53.7 121.8,53.7 121.8,75.8 127.9,75.8 
					127.9,60.2 133.7,75.8 139,75.8 144.7,60.2 				"/>
				<path d="M112,53.7h-7.9L94.2,76h6.7l1.8-4.5h10.3l2,4.5h6.9L112,53.7z M104.8,66.3l3-7.3l3,7.3H104.8z"/>
			</g>
		</g>
		<polygon points="145.1,89.4 150.7,95.5 150.9,83.3 		"/>
	</g>
</g>
<g>
	<path d="M210.5,115.3v-5.1c0-2-1.2-3.2-3.2-3.4c-1,0-2.2,0.4-3,1.4c-0.6-1-1.4-1.4-2.8-1.4c-0.8,0-1.8,0.2-2.4,1.2v-1h-1.8v8.3h1.8
		v-4.5c0-1.4,0.8-2.2,2-2.2c1.2,0,1.8,0.8,1.8,2.2v4.5h1.8v-4.5c0-1.4,0.8-2.2,2-2.2c1.2,0,1.8,0.8,1.8,2.2v4.5H210.5z M237.1,107
		h-3v-2.6h-1.8v2.6h-1.6v1.6h1.6v3.8c0,2,0.8,3,2.8,3c0.8,0,1.6-0.2,2.2-0.6l-0.6-1.6c-0.6,0.4-1.2,0.4-1.6,0.4
		c-1,0-1.2-0.6-1.2-1.4v-3.8h3V107H237.1z M252.3,106.8c-1,0-1.8,0.4-2.2,1.2v-1h-1.8v8.3h1.8v-4.5c0-1.4,0.6-2.2,1.8-2.2
		c0.4,0,0.8,0,1.2,0.2l0.6-1.8C253.1,107,252.7,106.8,252.3,106.8L252.3,106.8z M229.2,107.8c-0.8-0.6-2-0.8-3.4-0.8
		c-2.2,0-3.4,1-3.4,2.6c0,1.4,1,2.2,2.8,2.4l0.8,0.2c1,0.2,1.4,0.4,1.4,0.8c0,0.6-0.6,1-1.8,1c-1.2,0-2.2-0.4-2.8-0.8l-0.8,1.4
		c1,0.8,2.2,1,3.6,1c2.4,0,3.8-1.2,3.8-2.8c0-1.4-1-2.2-3-2.4l-0.8-0.2c-0.8-0.2-1.4-0.2-1.4-0.8c0-0.6,0.6-1,1.6-1
		c1,0,2,0.4,2.6,0.8L229.2,107.8z M277.2,106.8c-1,0-1.8,0.4-2.2,1.2v-1h-1.8v8.3h1.8v-4.5c0-1.4,0.6-2.2,1.8-2.2
		c0.4,0,0.8,0,1.2,0.2l0.6-1.8C278,107,277.4,106.8,277.2,106.8L277.2,106.8z M254.1,111.1c0,2.6,1.8,4.3,4.3,4.3c1.2,0,2-0.2,3-1
		l-0.8-1.4c-0.6,0.4-1.4,0.8-2.2,0.8c-1.4,0-2.6-1-2.6-2.6c0-1.6,1-2.6,2.6-2.6c0.8,0,1.4,0.2,2.2,0.8l0.8-1.4c-1-0.8-1.8-1-3-1
		C255.9,106.8,254.1,108.6,254.1,111.1L254.1,111.1z M270.9,111.1V107h-1.8v1c-0.6-0.8-1.4-1.2-2.6-1.2c-2.4,0-4.1,1.8-4.1,4.3
		c0,2.6,1.8,4.3,4.1,4.3c1.2,0,2-0.4,2.6-1.2v1h1.8V111.1z M264.2,111.1c0-1.4,1-2.6,2.6-2.6c1.4,0,2.6,1.2,2.6,2.6
		c0,1.6-1,2.6-2.6,2.6C265.1,113.7,264.2,112.5,264.2,111.1L264.2,111.1z M242.6,106.8c-2.4,0-4.1,1.8-4.1,4.3
		c0,2.6,1.8,4.3,4.1,4.3c1.2,0,2.4-0.4,3.4-1.2l-0.8-1.4c-0.6,0.6-1.6,0.8-2.4,0.8c-1.2,0-2.2-0.6-2.4-2h6.1c0-0.2,0-0.4,0-0.6
		C246.6,108.6,245,106.8,242.6,106.8L242.6,106.8z M242.6,108.4c1.2,0,2,0.8,2.2,2h-4.3C240.7,109.2,241.3,108.4,242.6,108.4
		L242.6,108.4z M287.5,111.1v-7.3h-1.8v4.3c-0.6-0.8-1.4-1.2-2.6-1.2c-2.4,0-4.1,1.8-4.1,4.3c0,2.6,1.8,4.3,4.1,4.3
		c1.2,0,2-0.4,2.6-1.2v0.8h1.8V111.1z M280.7,111.1c0-1.4,1-2.6,2.6-2.6c1.4,0,2.6,1.2,2.6,2.6c0,1.6-1,2.6-2.6,2.6
		C281.7,113.7,280.7,112.5,280.7,111.1L280.7,111.1z M220.5,111.1V107h-1.8v1c-0.6-0.8-1.4-1.2-2.6-1.2c-2.4,0-4.1,1.8-4.1,4.3
		c0,2.6,1.8,4.3,4.1,4.3c1.2,0,2-0.4,2.6-1.2v1h1.8V111.1z M213.8,111.1c0-1.4,1-2.6,2.6-2.6c1.4,0,2.6,1.2,2.6,2.6
		c0,1.6-1,2.6-2.6,2.6S213.8,112.5,213.8,111.1z M290.4,114.1c0.2,0,0.2,0,0.4,0s0.2,0.2,0.2,0.2l0.2,0.2c0,0.2,0,0.2,0,0.4
		s0,0.2,0,0.4l-0.2,0.2l-0.2,0.2c-0.2,0-0.2,0-0.4,0c-0.2,0-0.2,0-0.4,0s-0.2-0.2-0.2-0.2l-0.2-0.2c0,0,0-0.2,0-0.4
		c0-0.2,0-0.2,0-0.4c0-0.2,0.2-0.2,0.2-0.2l0.2-0.2C290.2,114.1,290.2,114.1,290.4,114.1z M290.4,115.5h0.2c0,0,0.2,0,0.2-0.2
		l0.2-0.2v-0.2v-0.2c0,0,0-0.2-0.2-0.2l-0.2-0.2h-0.2h-0.2c0,0-0.2,0-0.2,0.2l-0.2,0.2v0.2v0.2c0,0,0,0.2,0.2,0.2l0.2,0.2
		C290.2,115.5,290.2,115.5,290.4,115.5z M290.4,114.5h0.2v0.2v0.2h-0.2l0.2,0.2h-0.2l-0.2-0.2l0,0v0.4H290v-0.8H290.4z M290.2,114.7
		v0.2h0.2c0,0,0,0,0.2,0l0,0l0,0C290.4,114.7,290.4,114.7,290.2,114.7L290.2,114.7z M289.2,88v-1h0.4v-0.2h-1v0.2h0.4v1H289.2z
		 M291.2,88v-1.2h-0.4l-0.4,0.8l-0.4-0.8h-0.4V88h0.2v-1l0.4,0.8h0.2l0.4-0.8v1H291.2z M239.5,94c0.2,0.2,0.6,0.4,0.8,0.6
		c-4.9,3.4-10.9,5.1-17.2,5.1c-17,0-31-13.8-31-31s13.8-31,31-31c6.3,0,12.2,2,17.2,5.1c-0.2,0.2-0.6,0.4-0.8,0.6
		c-7.3,6.3-11.5,15.4-11.5,25.1C228,78.4,232.2,87.6,239.5,94z M261.4,37.9c-6.3,0-12.2,2-17.2,5.1c0.2,0.2,0.6,0.4,0.8,0.6
		c7.3,6.3,11.5,15.4,11.5,25.1s-4.1,18.8-11.5,25.1c-0.2,0.2-0.6,0.4-0.8,0.6c4.9,3.4,10.9,5.1,17.2,5.1c17,0,31-13.8,31-31
		C292.2,51.7,278.4,37.9,261.4,37.9z M242.2,44.6c-0.4,0.4-0.8,0.6-1.2,1c-6.5,5.7-10.7,14-10.7,23.3s4.1,17.6,10.7,23.3
		c0.4,0.4,0.8,0.6,1.2,1c0.4-0.4,0.8-0.6,1.2-1c6.5-5.7,10.7-14,10.7-23.3s-4.1-17.6-10.7-23.3C243,45.2,242.6,44.8,242.2,44.6"/>
</g>
<path d="M386.4,53.3l-19.5,46.8h-12.7l-9.6-37.2c-0.5-2.3-1-3-2.8-4.1c-2.8-1.5-7.6-3-11.9-4.1l0.3-1.3h20.5c2.5,0,5.1,1.8,5.6,4.8
	l5.1,27.1L374,53.5h12.4V53.3z M436.6,84.7c0-12.4-17-12.9-17-18.5c0-1.8,1.5-3.5,5.1-3.8c1.8-0.3,6.6-0.5,11.9,2l2-9.9
	c-2.8-1-6.6-2-11.4-2c-11.9,0-20.3,6.3-20.5,15.4c0,6.8,6.1,10.4,10.6,12.7c4.8,2.3,6.3,3.8,6.3,5.8c0,3-3.8,4.6-7.3,4.6
	c-6.1,0-9.6-1.5-12.4-3l-2.3,10.1c2.8,1.3,8.1,2.5,13.4,2.5C428.2,100.6,436.3,94.5,436.6,84.7 M468,100.1h11.1l-9.9-46.8h-10.4
	c-2.3,0-4.3,1.3-5.1,3.5l-18.2,43.3h12.7l2.5-7.1h15.4L468,100.1z M454.5,83.4l6.3-17.5l3.5,17.5H454.5z M403.6,53.3l-9.9,46.8
	h-12.2l9.9-46.8C391.5,53.3,403.6,53.3,403.6,53.3z"/>
</svg>
