<?xml version="1.0" encoding="utf-8"?>
<!-- Generator: Adobe Illustrator 28.2.0, SVG Export Plug-In . SVG Version: 6.00 Build 0)  -->
<svg version="1.1" id="Layer_1" xmlns="http://www.w3.org/2000/svg" xmlns:xlink="http://www.w3.org/1999/xlink" x="0px" y="0px"
	 viewBox="0 0 805 155" style="enable-background:new 0 0 805 155;" xml:space="preserve">
<style type="text/css">
	.st0{fill:#FFFFFF;}
	.st1{fill:#231916;}
</style>
<g id="XMLID_3_">
	<g id="XMLID_00000030472923614279416040000014705411703619536047_">
		<g>
			<path class="st0" d="M766.6,41.9c3.8,0,6.1,3.2,5.2,6.6l-12.6,55.2c-0.9,3.9-4.6,7-8.4,7h-26.5c-3.8,0-6.1-3.1-5.2-7l1-4.6h-0.3
				v-2.3h2.3l0.9-2.1l0,0.9c-0.1,0.4,0,0.7,0.3,0.9c0.3,0.3,1.2,0.3,2.5,0.3h1.8l0.7-2.2l2.4,0.7l-0.2,0.8h6.4l-0.2,0.7h3.1L740,96
				h0.9l-0.2,0.7h2.4c1.2,0,2-0.6,2.5-1.3l1.7-2.4l0.4,2.4c0.1,0.4,0.4,0.7,0.6,0.8c0.2,0.2,0.5,0.4,0.8,0.4c0.4,0,0.6,0,0.8,0h1.2
				l0.7-2.3h-0.5c-0.3,0-0.7,0-0.8-0.1c-0.1-0.1-0.1-0.3-0.1-0.5l-0.4-2.4h-1.5l0.7-0.8h3.7l0.6-1.9h-3.4l0.5-1.7h3.4l0.6-2.2h-2.3
				v-0.5c1.2,0,2-0.6,2.4-1.4l1.3-2.3l0.1-0.2c0.9-2,7.6-13.8,7.4-13.9l-0.1-0.1c-1.7,0.3-2,0.4-3.5,0.6l-0.1,0.1v0.1
				c-1.2,2.8-1.2,2.2-2.1,4.3c0-0.1,0-0.2,0-0.3l-0.2-4.6l-0.1-0.1c-1.7,0.3-1.8,0.4-3.4,0.6l-0.1,0.1l-1.3-0.3c0-0.1,0-0.1,0-0.2
				l-0.1-0.1c-1.7,0.3-2.2,0.4-3.8,0.6l-0.1,0.1c-0.1,0.1-0.1,0.3-0.1,0.4c-0.3-0.4-0.6-0.8-1.2-1c-0.7-0.3-2.4,0.1-3.9,1.4
				l-1.4-0.1c0.8-0.9,1.4-2.1,1.7-3.5c0.1-0.4,0.2-1,0.2-1.5c0-0.7-0.1-1.4-0.5-1.9c-1-1.5-3-1.5-5.3-1.5H737
				c-2.9,0.1-4.1,0.1-4.6,0c0,0.2-0.1,0.6-0.1,0.6l-1,5c0,0-2.3,10-2.6,11.1l-2-0.2c0.2-1.3,0.3-1.8,0.7-3.7l0.2-1
				c0.4-1.9,0.6-2.9,0.3-3.7c-0.3-0.9-1.2-1.1-1.9-1.1c-0.5,0-1.4,0.1-2.2,0.5c-0.3,0.1-0.6,0.3-0.9,0.5l0.2-1l-0.1-0.2
				c-1.7,0.3-2.1,0.4-3.7,0.6l-0.1,0.1c-0.2,1.4-0.3,2.5-0.9,5l-1.2-0.3c0.1-0.2,0.1-0.3,0.1-0.4c0.4-2.1,0.1-3.1-0.4-3.7
				c-0.8-0.9-2-1.2-3.3-1.2c-0.8,0-2.6,0.1-4.1,1.5c-1,1-1.5,2.3-1.8,3.6c0,0.1,0,0.2,0,0.4l-1.5-0.4c0.1-0.3,0.2-0.7,0.2-1
				c0.1-0.7,0.3-1.3,0.4-1.9v-0.1v-0.1c-0.8,0.1-1.4,0.2-1.9,0.3c-0.6,0.1-1.1,0.2-1.9,0.3l-0.1,0.1h-0.1c-0.1,0.6-0.2,1.2-0.3,1.8
				c-0.1,0.7-0.3,1.4-0.5,2.5c-0.2,0.8-0.3,1.1-0.4,1.4c-0.1,0.3-0.2,0.5-0.3,1.1l-1.5-0.1c0.3-1.3,0.4-1.8,0.8-3.7l0.2-1
				c0.4-1.9,0.6-2.9,0-3.3c-0.3-0.9-1.2-1.1-1.9-1.1c-0.5,0-1.4,0.1-2.2,0.5c-0.3,0.1-0.6,0.3-0.9,0.5l0.3-1l-0.1-0.2
				c-1.7,0.3-2,0.4-3.6,0.6l-0.1,0.1c-0.2,1.5-0.3,2.7-1,5.7c-0.3,1.2-0.5,2.3-0.8,3.4l0.1,0.1c1.6-0.1,2.1-0.1,3.5-0.1v2.8h-0.6
				l-5.6,24.5c-0.5,2.3-0.1,4.4,1.1,6c0.4,0.5,0.9,0.9,1.4,1.3h-21c-3.7,0-6.1-3.1-5.2-7l12.6-55.2c0.9-3.9,4.6-7,8.4-7h20.6
				c-2.6,1.4-4.6,3.9-5.3,6.8l-3.4,14.9c0.3-0.1,1.1-0.1,1.8-0.2l3.3-14.4c0.9-3.9,4.6-7,8.4-7h24.9c-2.6,1.4-4.6,3.9-5.3,6.8
				l-3.4,14.9c0.5,0,1.2,0,1.7,0.3l3.4-14.9c0.9-3.9,4.6-7,8.4-7H766.6z M706.4,67.6c0.9-0.6,1.1-1.5,0.3-2s-2.1-0.3-3,0.3
				c-1,0.6-1.1,1.5-0.3,2C704.2,68.4,705.5,68.2,706.4,67.6z M692.3,59.7v-0.1c-2.8,0-3.6,0-3.9-0.1c-0.1,0.5-2,9.3-2,9.3
				c-0.4,1.8-0.7,3.1-1.7,3.9c-0.6,0.5-1.2,0.7-2,0.7c-1.3,0-2-0.6-2.1-1.8v-0.4l0.4-2.4c0,0,1.9-8,2.3-9.1v-0.1
				c-3.9,0-4.6,0-4.6-0.1c0,0.1-0.1,0.6-0.1,0.6l-2,9.1l-0.2,0.8l-0.3,2.5c0,0.8,0.1,1.4,0.4,1.9c0.9,1.7,3.5,1.9,5,1.9
				c1.9,0,3.7-0.5,4.9-1.2c2.1-1.3,2.6-3.3,3.1-5l0.4-0.9C689.9,69.2,692,60.8,692.3,59.7z"/>
			<path class="st0" d="M754.6,72.3c0.2,1.4,0.3,2,0.5,4.1c-0.5,0.9-0.9,1.6-1.2,2.2c-0.3,0.6-0.7,1.2-1.2,2l-0.7,1.2
				c-0.1,0.1-0.2,0.2-0.3,0.2c-0.1,0.1-0.3,0.1-0.5,0.1h-0.4l-0.6,2.1h2.1v0.5h-4.9v-0.5c0.1,0,0.2,0,0.3,0h1.8l0.6-2.1h-0.7
				c-0.4,0-0.6-0.1-0.6-0.3v-1.3h-3.4c-1.1,0-4.4,0.1-5.1,0.3c-0.9,0.2-1.7,0.8-1.7,0.8l0.3-1.2h-3.2l-0.7,2.3L731.7,94h-0.6
				l-0.4,1.3l-2.4-0.7l-1.6,0.1h-0.5c0,0-0.1,0-0.2-0.1s-0.2-0.1-0.2-0.5v-1.5l1.7-0.1c0.9,0,1.3-0.3,1.6-0.6c0.3-0.3,0.4-0.6,0.5-1
				l0.4-1.4h-2.3l-0.3,0.9c0,0.1-0.1,0.2-0.2,0.3c-0.1,0.1-0.3,0.1-0.5,0.1H726v-1.2h-2.9l-0.1,4.9l-2,0.2c-0.3,0-0.4-0.1-0.5-0.2
				s0-0.4,0.1-0.8l1.3-4.5h4.7c0.7,0,1.2,0,1.5,0c0.3,0,0.7-0.2,1.1-0.4c0.4-0.3,0.6-0.5,0.8-0.8s0.5-0.9,0.8-1.9l1.7-5.6h-4.9
				c0,0-1.5,0.2-2.2,0.5c-0.7,0.2-1.6,1-1.6,1l0.4-1.6h-3L717,94.7c-0.2,0.6-0.3,1-0.3,1.2c0,0.3,0.3,0.5,0.5,0.7
				c0.3,0.2,0.6,0.2,1,0.2c0.3,0,0.9,0,1.6,0v2.3h-1.4l-1,4.4c-0.5,2.3-0.1,4.4,1.1,6c0.4,0.5,0.9,0.9,1.4,1.3h-25.3
				c-3.8,0-6.1-3.1-5.2-7l5.6-24.7h-1.1v-2.8l0.1-0.1c0.2-0.9,0.2-1.1,0.6-3c0.2-0.9,0.6-2.9,0.8-3.6c0.3-0.1,0.7-0.3,1-0.3
				c0.8,0,0.7,0.7,0.7,1c0,0.5-0.3,2-0.6,3.3l-0.2,0.8c-0.1,0.6-0.3,1.2-0.4,1.8l0.1,0.1c1.6-0.1,2-0.1,3.4-0.1l0.2-0.1
				c0-0.1,0-0.2,0.1-0.3l1.5,0.1c0,0.1,0,0.2-0.1,0.3l0.1,0.1v0.1c0.8-0.1,1.3-0.1,1.8-0.1c0.6,0,1.1,0,1.9,0l0.1-0.1l0.1-0.1
				c0.1-0.7,0.1-0.9,0.2-1.3c0.1-0.4,0.2-0.9,0.5-2.3c0.1-0.3,0.2-0.7,0.2-1l1.5,0.4c-0.2,1.3-0.4,3.3,1.7,4
				c0.7,0.3,1.6,0.4,2.2,0.4c1.5,0,3.1-0.4,4.3-1.7c0.7-0.9,1.2-2.1,1.4-2.9l1.2,0.3c0,0.2-0.1,0.4-0.1,0.7
				c-0.2,1.1-0.5,2.3-0.8,3.8l0.1,0.1c1.6-0.1,2.1-0.1,3.5-0.1l0.1-0.1c0.2-0.9,0.2-1.1,0.6-3c0.2-0.9,0.6-2.9,0.8-3.6
				c0.3-0.1,0.7-0.3,1-0.3c0.8,0,0.7,0.7,0.7,1c0,0.5-0.3,2-0.6,3.3l-0.2,0.8c-0.1,0.6-0.3,1.2-0.4,1.8l0.1,0.1
				c1.6-0.1,2-0.1,3.4-0.1l0.2-0.1c0-0.1,0-0.2,0-0.3l2,0.2c0,0,0,0.1,0,0.1c2.5,0,3.6,0,4,0c0.1-0.5,0.7-3.5,0.7-3.5
				s0.5-2.2,0.5-2.3c0,0,0.1-0.2,0.3-0.3h0.2c2.3,0,4.7,0,6.7-1.5c0.3-0.2,0.6-0.5,0.9-0.8l1.4,0.1c-1,1-1.5,2.3-1.8,3.6
				c-0.3,1.3-0.6,3.7,1.5,4.5c0.7,0.2,1.3,0.3,1.9,0.3c0.7,0,1.2-0.3,1.8-0.8c0,0.2-0.1,0.4-0.1,0.6l0.1,0.1c1.5-0.1,2-0.1,3.6-0.1
				l0.2-0.1c0.2-1.4,0.5-2.8,1.1-5.6c0.3-1.2,0.6-2.5,0.9-3.7l1.3,0.3c0,0.1,0,0.1,0,0.2c0.2,1.1,0.2,0.8,0.4,2.5
				C754.4,70.7,754.5,71.5,754.6,72.3z M719.6,81.7L719.6,81.7L719.6,81.7h-3.4l0.6-1.2h-3.5l-0.9,1.6c-0.2,0.4-0.3,0.6-0.5,0.7
				c-0.1,0.1-0.4,0.1-0.8,0.1h-0.5L710,85h1.5c0.8,0,1.3-0.3,1.6-0.4c0.3-0.2,0.4-0.1,0.6-0.3l0.5-0.5h4.8L719.6,81.7L719.6,81.7z
				 M718.1,87.4l0.6-2.1h-8.6l-0.6,2.1h2l-0.5,1.8h-2l-0.6,2.2h2l-1.1,3.9c-0.2,0.5,0.1,0.7,0.2,0.9c0.1,0.3,0.3,0.4,0.6,0.5
				c0.3,0.1,0.6,0.1,0.9,0.1h4l0.7-2.3l-1.8,0.2c-0.4,0-1.3-0.1-1.2-0.4l0.9-2.9h3.5l0.6-2.2h-3.5l0.5-1.8H718.1z"/>
			<path class="st0" d="M746.9,68.7c0.7,0,1.1,0.7,1,1.8c-0.1,0.3-0.1,0.6-0.2,0.9c-0.1,0.5-0.2,0.9-0.3,1.4
				c-0.1,0.3-0.2,0.6-0.4,0.8c-0.3,0.4-0.9,0.7-1.3,0.7c-0.1,0-0.7,0-0.9-1.1c0-0.5,0.1-1,0.2-1.6C745.4,70.1,745.8,68.7,746.9,68.7
				z"/>
			<path class="st0" d="M747.5,86.9l-0.5,1.7h-3.7l-0.6,1.9h3.2l-2.5,3.5c-0.2,0.2-0.3,0.3-0.5,0.4c-0.2,0.1-0.4,0.2-0.7,0.2h-0.9
				l0.3-0.9h-0.9l3.3-11.1h1.1l0.4-1.1v1.3c0,0.8,0.5,1.4,1.9,1.4v0.5h-3l-0.6,2.2H747.5z"/>
			<polygon class="st0" points="741.3,94.6 740.9,96 741.3,94.6 			"/>
			<path class="st0" d="M741,82.6l-0.6,2.1c0,0-0.8,0.1-1.3,0.2c-0.5,0.2-1.5,0.6-1.5,0.6l0.8-2.8v-0.1H741z"/>
			<path class="st0" d="M738.6,62.2c0.9,0.4,1.3,1.3,1,2.5c-0.2,1.1-0.9,2-1.8,2.5c-0.7,0.4-1.6,0.4-2.5,0.4h-0.6v-0.2l1.1-5v-0.3
				v-0.2l0.4,0.1C736.2,62,738.5,62.2,738.6,62.2z"/>
			<path class="st0" d="M739.6,86.9L739,89c0,0-0.8,0.1-1.3,0.2c-0.5,0.2-1.5,0.7-1.5,0.7l0.9-3H739.6z"/>
			<polygon class="st0" points="738.4,91.3 737.6,93.8 735.1,93.8 735.8,91.3 			"/>
			<path class="st0" d="M728.6,82.7l-0.4,1.2c0,0-2.4,0-2.7,0c-1.6,0.3-2.6,1.2-2.6,1.2l0.7-2.4H728.6z"/>
			<path class="st0" d="M727.5,86.1l-0.3,1c0,0-0.2,0-0.6,0h-4.3l0.3-1H727.5z"/>
			<polygon class="st1" points="723.1,94.5 723,94.7 723,94.5 			"/>
			<polygon class="st1" points="719.6,81.6 719.6,81.7 719.6,81.7 			"/>
			<path class="st0" d="M713.1,68.6c0.8,0,0.9,1,0.5,2.6c-0.1,0.4-0.4,1.7-0.8,2.3c-0.3,0.4-0.6,0.7-1,0.7c-0.1,0-0.8,0-0.8-1
				c0-0.5,0.1-1,0.2-1.6C711.6,70,712,68.6,713.1,68.6z"/>
		</g>
		<g>
		</g>
	</g>
</g>
<g>
	<g>
		<g>
			<path class="st0" d="M141.4,104.2l-4.9-5.5l-5.1,5.5h-10.1l0,0H99.5V78.7H89.2l12.6-28.6H114l4.3,9.9v-9.9h15.2l2.6,7.5l2.6-7.5
				h11.6v-4.3c0-2.6-2.2-4.7-4.7-4.7H43.8c-2.6,0-4.7,2.2-4.7,4.7v61.6c0,2.6,2.2,4.7,4.7,4.7h102.1c2.6,0,4.7-2.2,4.7-4.7v-3.2
				H141.4z"/>
			<g>
				<polygon class="st0" points="142.8,101.2 150.7,101.2 140.2,90 150.7,79.1 143,79.1 136.2,86.2 129.9,79.1 121.8,79.1 
					132.3,90.2 121.8,101.2 129.5,101.2 136.2,94.1 				"/>
				<polygon class="st0" points="109,96.1 109,92.7 121.4,92.7 121.4,87.6 109,87.6 109,84.3 121.8,84.3 121.8,79.1 102.9,79.1 
					102.9,101.2 121.8,101.2 121.8,96.1 				"/>
				<polygon class="st0" points="144.7,75.8 150.7,75.8 150.7,53.5 141.4,53.7 136.4,67.5 131.3,53.7 121.8,53.7 121.8,75.8 
					127.9,75.8 127.9,60.2 133.7,75.8 139,75.8 144.7,60.2 				"/>
				<path class="st0" d="M112,53.7h-7.9L94.2,76h6.7l1.8-4.5H113l2,4.5h6.9L112,53.7z M104.8,66.3l3-7.3l3,7.3H104.8z"/>
			</g>
		</g>
		<polygon class="st0" points="145.1,89.4 150.7,95.5 150.9,83.3 		"/>
	</g>
</g>
<g>
	<path class="st0" d="M210.5,115.3v-5.1c0-2-1.2-3.2-3.2-3.4c-1,0-2.2,0.4-3,1.4c-0.6-1-1.4-1.4-2.8-1.4c-0.8,0-1.8,0.2-2.4,1.2v-1
		h-1.8v8.3h1.8v-4.5c0-1.4,0.8-2.2,2-2.2s1.8,0.8,1.8,2.2v4.5h1.8v-4.5c0-1.4,0.8-2.2,2-2.2s1.8,0.8,1.8,2.2v4.5H210.5z M237.1,107
		h-3v-2.6h-1.8v2.6h-1.6v1.6h1.6v3.8c0,2,0.8,3,2.8,3c0.8,0,1.6-0.2,2.2-0.6l-0.6-1.6c-0.6,0.4-1.2,0.4-1.6,0.4
		c-1,0-1.2-0.6-1.2-1.4v-3.8h3V107H237.1z M252.3,106.8c-1,0-1.8,0.4-2.2,1.2v-1h-1.8v8.3h1.8v-4.5c0-1.4,0.6-2.2,1.8-2.2
		c0.4,0,0.8,0,1.2,0.2l0.6-1.8C253.1,107,252.7,106.8,252.3,106.8L252.3,106.8z M229.2,107.8c-0.8-0.6-2-0.8-3.4-0.8
		c-2.2,0-3.4,1-3.4,2.6c0,1.4,1,2.2,2.8,2.4l0.8,0.2c1,0.2,1.4,0.4,1.4,0.8c0,0.6-0.6,1-1.8,1s-2.2-0.4-2.8-0.8l-0.8,1.4
		c1,0.8,2.2,1,3.6,1c2.4,0,3.8-1.2,3.8-2.8c0-1.4-1-2.2-3-2.4l-0.8-0.2c-0.8-0.2-1.4-0.2-1.4-0.8c0-0.6,0.6-1,1.6-1s2,0.4,2.6,0.8
		L229.2,107.8z M277.2,106.8c-1,0-1.8,0.4-2.2,1.2v-1h-1.8v8.3h1.8v-4.5c0-1.4,0.6-2.2,1.8-2.2c0.4,0,0.8,0,1.2,0.2l0.6-1.8
		C278,107,277.4,106.8,277.2,106.8L277.2,106.8z M254.1,111.1c0,2.6,1.8,4.3,4.3,4.3c1.2,0,2-0.2,3-1l-0.8-1.4
		c-0.6,0.4-1.4,0.8-2.2,0.8c-1.4,0-2.6-1-2.6-2.6s1-2.6,2.6-2.6c0.8,0,1.4,0.2,2.2,0.8l0.8-1.4c-1-0.8-1.8-1-3-1
		C255.9,106.8,254.1,108.6,254.1,111.1L254.1,111.1z M270.9,111.1V107h-1.8v1c-0.6-0.8-1.4-1.2-2.6-1.2c-2.4,0-4.1,1.8-4.1,4.3
		c0,2.6,1.8,4.3,4.1,4.3c1.2,0,2-0.4,2.6-1.2v1h1.8V111.1z M264.2,111.1c0-1.4,1-2.6,2.6-2.6c1.4,0,2.6,1.2,2.6,2.6
		c0,1.6-1,2.6-2.6,2.6C265.1,113.7,264.2,112.5,264.2,111.1L264.2,111.1z M242.6,106.8c-2.4,0-4.1,1.8-4.1,4.3
		c0,2.6,1.8,4.3,4.1,4.3c1.2,0,2.4-0.4,3.4-1.2l-0.8-1.4c-0.6,0.6-1.6,0.8-2.4,0.8c-1.2,0-2.2-0.6-2.4-2h6.1c0-0.2,0-0.4,0-0.6
		C246.6,108.6,245,106.8,242.6,106.8L242.6,106.8z M242.6,108.4c1.2,0,2,0.8,2.2,2h-4.3C240.7,109.2,241.3,108.4,242.6,108.4
		L242.6,108.4z M287.5,111.1v-7.3h-1.8v4.3c-0.6-0.8-1.4-1.2-2.6-1.2c-2.4,0-4.1,1.8-4.1,4.3c0,2.6,1.8,4.3,4.1,4.3
		c1.2,0,2-0.4,2.6-1.2v0.8h1.8V111.1z M280.7,111.1c0-1.4,1-2.6,2.6-2.6c1.4,0,2.6,1.2,2.6,2.6c0,1.6-1,2.6-2.6,2.6
		S280.7,112.5,280.7,111.1L280.7,111.1z M220.5,111.1V107h-1.8v1c-0.6-0.8-1.4-1.2-2.6-1.2c-2.4,0-4.1,1.8-4.1,4.3
		c0,2.6,1.8,4.3,4.1,4.3c1.2,0,2-0.4,2.6-1.2v1h1.8V111.1z M213.8,111.1c0-1.4,1-2.6,2.6-2.6c1.4,0,2.6,1.2,2.6,2.6
		c0,1.6-1,2.6-2.6,2.6S213.8,112.5,213.8,111.1z M290.4,114.1c0.2,0,0.2,0,0.4,0s0.2,0.2,0.2,0.2l0.2,0.2c0,0.2,0,0.2,0,0.4
		s0,0.2,0,0.4l-0.2,0.2l-0.2,0.2c-0.2,0-0.2,0-0.4,0c-0.2,0-0.2,0-0.4,0s-0.2-0.2-0.2-0.2l-0.2-0.2c0,0,0-0.2,0-0.4
		c0-0.2,0-0.2,0-0.4c0-0.2,0.2-0.2,0.2-0.2l0.2-0.2C290.2,114.1,290.2,114.1,290.4,114.1z M290.4,115.5h0.2c0,0,0.2,0,0.2-0.2
		l0.2-0.2v-0.2v-0.2c0,0,0-0.2-0.2-0.2l-0.2-0.2h-0.2h-0.2c0,0-0.2,0-0.2,0.2l-0.2,0.2v0.2v0.2c0,0,0,0.2,0.2,0.2l0.2,0.2
		C290.2,115.5,290.2,115.5,290.4,115.5z M290.4,114.5h0.2v0.2v0.2h-0.2l0.2,0.2h-0.2l-0.2-0.2l0,0v0.4H290v-0.8
		C290,114.5,290.4,114.5,290.4,114.5z M290.2,114.7v0.2h0.2c0,0,0,0,0.2,0l0,0l0,0C290.4,114.7,290.4,114.7,290.2,114.7L290.2,114.7
		z M289.2,88v-1h0.4v-0.2h-1V87h0.4v1H289.2z M291.2,88v-1.2h-0.4l-0.4,0.8l-0.4-0.8h-0.4V88h0.2v-1l0.4,0.8h0.2l0.4-0.8v1H291.2z
		 M239.5,94c0.2,0.2,0.6,0.4,0.8,0.6c-4.9,3.4-10.9,5.1-17.2,5.1c-17,0-31-13.8-31-31s13.8-31,31-31c6.3,0,12.2,2,17.2,5.1
		c-0.2,0.2-0.6,0.4-0.8,0.6c-7.3,6.3-11.5,15.4-11.5,25.1C228,78.4,232.2,87.6,239.5,94z M261.4,37.9c-6.3,0-12.2,2-17.2,5.1
		c0.2,0.2,0.6,0.4,0.8,0.6c7.3,6.3,11.5,15.4,11.5,25.1s-4.1,18.8-11.5,25.1c-0.2,0.2-0.6,0.4-0.8,0.6c4.9,3.4,10.9,5.1,17.2,5.1
		c17,0,31-13.8,31-31C292.2,51.7,278.4,37.9,261.4,37.9z M242.2,44.6c-0.4,0.4-0.8,0.6-1.2,1c-6.5,5.7-10.7,14-10.7,23.3
		s4.1,17.6,10.7,23.3c0.4,0.4,0.8,0.6,1.2,1c0.4-0.4,0.8-0.6,1.2-1c6.5-5.7,10.7-14,10.7-23.3s-4.1-17.6-10.7-23.3
		C243,45.2,242.6,44.8,242.2,44.6"/>
</g>
<path class="st0" d="M386.4,53.3l-19.5,46.8h-12.7l-9.6-37.2c-0.5-2.3-1-3-2.8-4.1c-2.8-1.5-7.6-3-11.9-4.1l0.3-1.3h20.5
	c2.5,0,5.1,1.8,5.6,4.8l5.1,27.1L374,53.5h12.4V53.3z M436.6,84.7c0-12.4-17-12.9-17-18.5c0-1.8,1.5-3.5,5.1-3.8
	c1.8-0.3,6.6-0.5,11.9,2l2-9.9c-2.8-1-6.6-2-11.4-2c-11.9,0-20.3,6.3-20.5,15.4c0,6.8,6.1,10.4,10.6,12.7c4.8,2.3,6.3,3.8,6.3,5.8
	c0,3-3.8,4.6-7.3,4.6c-6.1,0-9.6-1.5-12.4-3l-2.3,10.1c2.8,1.3,8.1,2.5,13.4,2.5C428.2,100.6,436.3,94.5,436.6,84.7 M468,100.1h11.1
	l-9.9-46.8h-10.4c-2.3,0-4.3,1.3-5.1,3.5l-18.2,43.3h12.7l2.5-7.1h15.4L468,100.1z M454.5,83.4l6.3-17.5l3.5,17.5H454.5z
	 M403.6,53.3l-9.9,46.8h-12.2l9.9-46.8C391.5,53.3,403.6,53.3,403.6,53.3z"/>
<g id="XMLID_00000163781485889433624630000011362039976552314027_">
	<g>
		<path class="st0" d="M625.6,45.9v61.5c0,1.9-1.6,3.5-3.5,3.5H521.9c-1.9,0-3.5-1.6-3.5-3.5V45.9c0-1.9,1.6-3.5,3.5-3.5h100.1
			C624,42.3,625.6,43.9,625.6,45.9z M620.3,76.6c0-18.3-14.8-33.1-33.1-33.1h-65.3c-1.3,0-2.4,1.1-2.4,2.4v61.5
			c0,1.3,1.1,2.4,2.4,2.4h65.3C605.5,109.7,620.3,94.9,620.3,76.6z"/>
		<path class="st0" d="M614.9,70.3l0.4,0.5H615l-0.4-0.5v0.5h-0.3v-1.3h0.4c0.3,0,0.5,0.1,0.5,0.4C615.2,70.1,615.1,70.2,614.9,70.3
			z M614.9,69.9c0-0.1-0.1-0.2-0.2-0.2h-0.1v0.3h0.1C614.8,70.1,614.9,70.1,614.9,69.9z"/>
		<path class="st0" d="M614.8,69.1c0.6,0,1.1,0.5,1.1,1.1c0,0.6-0.5,1.1-1.1,1.1s-1.1-0.5-1.1-1.1C613.6,69.6,614.1,69.1,614.8,69.1
			z M615.6,70.2c0-0.5-0.4-0.9-0.9-0.9s-0.9,0.4-0.9,0.9c0,0.5,0.4,0.9,0.9,0.9S615.6,70.7,615.6,70.2z"/>
		<path class="st0" d="M609.6,77.6l4.6,6.1h-3.5l-3.9-5.8h-0.4v5.8h-2.8V69.2h4.2c3.3,0,5.2,1.6,5.2,4.3
			C612.9,75.7,611.8,77.2,609.6,77.6z M610,73.6c0-1.4-1-2.2-2.7-2.2h-0.9v4.4h0.8C609,75.9,610,75.1,610,73.6z"/>
		<polygon class="st0" points="601.7,81.3 601.7,83.7 593.6,83.7 593.6,69.2 601.7,69.2 601.7,71.6 596.5,71.6 596.5,74.9 
			601.5,74.9 601.5,77.3 596.5,77.3 596.5,81.3 		"/>
		<polygon class="st0" points="592.3,69.2 586,84.1 584.5,84.1 578.3,69.2 581.4,69.2 585.3,78.9 589.3,69.2 		"/>
		<path class="st0" d="M571.4,68.7c4.3,0,7.7,3.4,7.7,7.7c0,4.3-3.5,7.7-7.7,7.7c-3.2,0-5.9-1.9-7.1-4.7c-0.4-0.9-0.6-1.9-0.6-3
			c0-1.1,0.2-2.1,0.6-3C565.5,70.7,568.2,68.7,571.4,68.7z"/>
		<path class="st0" d="M562.8,79.9v3.4c-1.3,0.6-2.3,0.8-3.6,0.8c-4.3,0-7.7-3.3-7.7-7.6c0-4.2,3.5-7.6,7.8-7.6
			c1.2,0,2.2,0.3,3.5,0.9v3.3c-1.2-1.2-2.2-1.6-3.6-1.6c-2.7,0-4.8,2.2-4.8,5c0,3,2,5,4.9,5C560.6,81.5,561.7,81,562.8,79.9z"/>
		<path class="st0" d="M550.1,70.5l-1.5,1.9c-0.7-0.8-1.4-1.2-2.3-1.2c-1.2,0-2.1,0.7-2.1,1.6c0,0.8,0.5,1.2,2.2,1.8
			c3.2,1.2,4.2,2.2,4.2,4.5c0,2.8-2.1,4.8-5,4.8c-2.2,0-3.7-0.9-5-2.8l1.8-1.8c0.6,1.3,1.7,1.9,3.1,1.9c1.3,0,2.2-0.9,2.2-2.1
			c0-0.6-0.3-1.1-0.9-1.5c-0.3-0.2-0.8-0.4-2-0.8c-2.7-1-3.6-2-3.6-4c0-2.4,2-4.2,4.5-4.2C547.5,68.9,548.9,69.5,550.1,70.5z"/>
		<polygon class="st0" points="539.5,81.3 539.5,83.7 536.7,83.7 536.7,69.2 539.5,69.2 539.5,73.1 		"/>
		<path class="st0" d="M527.5,69.2c4.6,0,7.8,3,7.8,7.3c0,2.1-1,4.2-2.6,5.6c-1.4,1.2-3,1.7-5.2,1.7h-4.2V69.2H527.5z M530.9,80.1
			c1-0.9,1.6-2.3,1.6-3.7s-0.6-2.8-1.6-3.6c-0.9-0.8-2.1-1.2-3.9-1.2h-0.8v9.6h0.8C528.8,81.3,530,80.9,530.9,80.1z"/>
	</g>
	<g>
	</g>
</g>
</svg>
